<svg viewBox="0 0 123 123" fill="none" xmlns="http://www.w3.org/2000/svg"><path d="M26.6 60.7L1.7 103.5c-4.8 8.3 1.2 18.7 10.8 18.7h92c9.6 0 15.6-10.4 10.8-18.7L90.2 60.2l-31.4 7.1-32.2-6.6z" fill="#2876CB"/><path d="M41.9 15.3v18.9L2 103.3l-.1.2c-.4.7-.7 1.3-.9 2.1-.1.1-.1.3-.2.5v.1c0-.2.1-.3.2-.4.2-.7.6-1.4.9-2.1l.1-.2.6-1 12-20.8 12-20.8.6-1c4.8-5.8 13.2-7.4 19.9-3.6l7.7 4.4c1.3.7 2.5 1.4 3.7 2 1.2-.6 2.4-1.3 3.7-2l7.7-4.4c6.9-4 15.6-2.1 20.4 4.1l12.1 21 11.8 20.4 1.1 1.8c.5.8.9 1.6 1.2 2.5.1.2.1.4.2.5l.3 1.5c0 .2 0 .3.1.5v2.1-2.2c0-.2 0-.3-.1-.5l-.3-1.5c0-.2-.1-.4-.2-.5-.3-.9-.7-1.7-1.2-2.5L75 33.9V15.3H41.9z" fill="url(#prefix__signature_svg__paint0_linear_6:270)"/><path d="M58.5 62.6c-1.2-.6-2.4-1.3-3.7-2l-7.7-4.4C40.4 52.3 32 54 27.2 59.8l-.6 1v.1c.3 2.1 3.6 16.7 31.9 1.7z" fill="#1976D2"/><path d="M63.6 81.5l10.6-4.4c9.6-4 21.6-2.1 28.1 4.1l-12.1-21c-4.7-6.2-13.4-8.1-20.4-4.1l-7.7 4.4c-1.3.7-2.5 1.4-3.7 2-28.2 15-31.5.4-31.9-1.8v-.1l-12 20.8v.2c.5 2.4 5.4 18.2 49.1-.1z" fill="#42A5F5"/><path d="M65 102.1l13.5-4.4c12.1-4 27.3-2.1 35.6 4l-11.8-20.4c-6.5-6.3-18.5-8.2-28.1-4.1l-10.6 4.4c-43.7 18.3-48.6 2.5-49 .3v-.2l-12 20.8c.6 2.3 7.1 17.8 62.4-.4z" fill="#2C8DE3"/><path d="M117 110.041v-1.285c0-.198 0-.297-.1-.495l-.301-1.482a.75.75 0 00-.2-.494 11.298 11.298 0 00-1.202-2.471l-1.102-1.779c-8.314-6.03-23.54-7.907-35.66-3.954L64.91 102.43c-55.395 17.989-61.906 2.767-62.607.296l-.601.989-.1.198c-.4.691-.701 1.284-.902 2.075-.1.099-.1.297-.2.396-.1.395-.2.691-.3 1.087v.197c-.1.396-.1.692-.201 1.088v2.372c0 .395.1.692.2 1.087v.198c.1.296.1.593.2.889l.301.89c0 .099.1.296.2.395.1.395.301.692.501.988l.3.594c.101.197.201.296.301.494.2.296.401.494.601.79.2.198.301.396.501.593l.401.396.5.494c.201.198.402.297.602.494.5.396.901.692 1.402.989.701.395 1.503.79 2.304.988.2.099.4.099.501.198.5.098 1.002.296 1.503.296.2 0 .3 0 .5.099h94.262c.2 0 .4 0 .601-.099.2 0 .3 0 .501-.099.5-.099 1.001-.197 1.402-.296.2 0 .401-.099.601-.198.3-.099.501-.198.801-.296a9.298 9.298 0 002.905-1.681c.201-.197.401-.296.601-.494.201-.099.301-.296.501-.494l.401-.395c.1-.099.2-.198.2-.297.1-.198.301-.296.401-.494.2-.198.3-.395.401-.593.1-.099.2-.297.3-.395.1-.099.2-.297.2-.396.101-.197.301-.494.401-.692.1-.197.2-.494.301-.692.1-.197.2-.494.3-.691v-.099c.1-.198.1-.396.2-.593v-.099c.101-.396.201-.791.201-1.186v-.494c0-.198 0-.396.1-.593.601-.099.601-.297.601-.593z" fill="#2876CB"/><path d="M38.8 15.3h39.5c4 0 7.3-3.3 7.3-7.3S82.3.7 78.3.7H38.8c-4 0-7.3 3.3-7.3 7.3s3.3 7.3 7.3 7.3z" fill="#C2DEEE"/><defs><linearGradient id="prefix__signature_svg__paint0_linear_6:270" x1="58.801" y1="13.654" x2="58.801" y2="52.945" gradientUnits="userSpaceOnUse"><stop stop-color="#A6CFE2"/><stop offset=".64" stop-color="#C2DEEE"/></linearGradient></defs></svg>